<mxfile host="app.diagrams.net" agent="Mozilla/5.0 (Windows NT 10.0; Win64; x64) AppleWebKit/537.36 (KHTML, like Gecko) Chrome/136.0.0.0 Safari/537.36" version="27.1.3">
  <diagram name="Trang-1" id="EW-9VMC7I17zgM2UdNVK">
    <mxGraphModel dx="1503" dy="895" grid="1" gridSize="10" guides="1" tooltips="1" connect="1" arrows="1" fold="1" page="1" pageScale="1" pageWidth="827" pageHeight="1169" math="0" shadow="0">
      <root>
        <mxCell id="0" />
        <mxCell id="1" parent="0" />
        <mxCell id="9jhqy1c9CeMgTM1U6a1--12" value="" style="shape=umlLifeline;perimeter=lifelinePerimeter;whiteSpace=wrap;html=1;container=1;dropTarget=0;collapsible=0;recursiveResize=0;outlineConnect=0;portConstraint=eastwest;newEdgeStyle={&quot;curved&quot;:0,&quot;rounded&quot;:0};participant=umlActor;" vertex="1" parent="1">
          <mxGeometry x="130" y="265" width="20" height="1045" as="geometry" />
        </mxCell>
        <mxCell id="9jhqy1c9CeMgTM1U6a1--19" value="&lt;div style=&quot;color: rgb(204, 204, 204); background-color: rgb(31, 31, 31); font-family: Consolas, &amp;quot;Courier New&amp;quot;, monospace; font-size: 14px; line-height: 19px; white-space: pre;&quot;&gt;&lt;span style=&quot;color: #ce9178;&quot;&gt;/api/users/signin&lt;/span&gt;&lt;/div&gt;" style="shape=umlLifeline;perimeter=lifelinePerimeter;whiteSpace=wrap;html=1;container=1;dropTarget=0;collapsible=0;recursiveResize=0;outlineConnect=0;portConstraint=eastwest;newEdgeStyle={&quot;curved&quot;:0,&quot;rounded&quot;:0};" vertex="1" parent="1">
          <mxGeometry x="270" y="280" width="140" height="1040" as="geometry" />
        </mxCell>
        <mxCell id="9jhqy1c9CeMgTM1U6a1--34" value="" style="html=1;points=[[0,0,0,0,5],[0,1,0,0,-5],[1,0,0,0,5],[1,1,0,0,-5]];perimeter=orthogonalPerimeter;outlineConnect=0;targetShapes=umlLifeline;portConstraint=eastwest;newEdgeStyle={&quot;curved&quot;:0,&quot;rounded&quot;:0};" vertex="1" parent="9jhqy1c9CeMgTM1U6a1--19">
          <mxGeometry x="65" y="80" width="10" height="880" as="geometry" />
        </mxCell>
        <mxCell id="9jhqy1c9CeMgTM1U6a1--36" value="&lt;div style=&quot;color: rgb(204, 204, 204); background-color: rgb(31, 31, 31); font-family: Consolas, &amp;quot;Courier New&amp;quot;, monospace; line-height: 19px; white-space-collapse: preserve;&quot;&gt;&lt;div style=&quot;&quot;&gt;&lt;font style=&quot;font-size: 10px;&quot;&gt;&lt;span style=&quot;color: rgb(156, 220, 254);&quot;&gt;req&lt;/span&gt;.&lt;span style=&quot;color: rgb(156, 220, 254);&quot;&gt;session&lt;/span&gt; &lt;span style=&quot;color: rgb(212, 212, 212);&quot;&gt;=&lt;/span&gt; {&lt;/font&gt;&lt;/div&gt;&lt;div style=&quot;&quot;&gt;&lt;font style=&quot;font-size: 10px;&quot;&gt;&lt;span style=&quot;color: rgb(156, 220, 254);&quot;&gt;&lt;span style=&quot;white-space: pre;&quot;&gt;&#x9;&lt;/span&gt;jwt&lt;/span&gt;&lt;span style=&quot;color: rgb(156, 220, 254);&quot;&gt;:&lt;/span&gt; &lt;span style=&quot;color: rgb(79, 193, 255);&quot;&gt;clientJwt&lt;/span&gt;,&lt;/font&gt;&lt;/div&gt;&lt;div style=&quot;&quot;&gt;&lt;font style=&quot;font-size: 10px;&quot;&gt;};&lt;/font&gt;&lt;/div&gt;&lt;/div&gt;" style="html=1;verticalAlign=bottom;endArrow=open;dashed=1;endSize=8;curved=0;rounded=0;exitX=0;exitY=1;exitDx=0;exitDy=-5;align=left;strokeWidth=1;" edge="1" source="9jhqy1c9CeMgTM1U6a1--34" parent="1" target="9jhqy1c9CeMgTM1U6a1--12">
          <mxGeometry x="0.7898" y="-5" relative="1" as="geometry">
            <mxPoint x="265" y="435" as="targetPoint" />
            <mxPoint as="offset" />
          </mxGeometry>
        </mxCell>
        <mxCell id="9jhqy1c9CeMgTM1U6a1--35" value="req" style="html=1;verticalAlign=bottom;endArrow=block;curved=0;rounded=0;entryX=0;entryY=0;entryDx=0;entryDy=5;" edge="1" target="9jhqy1c9CeMgTM1U6a1--34" parent="1" source="9jhqy1c9CeMgTM1U6a1--12">
          <mxGeometry relative="1" as="geometry">
            <mxPoint x="265" y="365" as="sourcePoint" />
          </mxGeometry>
        </mxCell>
        <mxCell id="9jhqy1c9CeMgTM1U6a1--37" value="&lt;div style=&quot;&quot;&gt;&lt;br&gt;&lt;/div&gt;&lt;div style=&quot;&quot;&gt;&lt;span style=&quot;background-color: transparent; color: light-dark(rgb(0, 0, 0), rgb(255, 255, 255));&quot;&gt;req.body&lt;/span&gt;&lt;/div&gt;&lt;div style=&quot;&quot;&gt;&lt;span style=&quot;background-color: transparent; color: light-dark(rgb(0, 0, 0), rgb(255, 255, 255));&quot;&gt;{&lt;/span&gt;&lt;/div&gt;&lt;div&gt;&lt;div style=&quot;&quot;&gt;&lt;span style=&quot;white-space: pre;&quot;&gt;&#x9;&lt;/span&gt;username: abc&lt;/div&gt;&lt;div style=&quot;&quot;&gt;&lt;span style=&quot;white-space: pre;&quot;&gt;&#x9;&lt;/span&gt;password: 123&lt;/div&gt;&lt;div&gt;}&lt;/div&gt;&lt;/div&gt;" style="text;html=1;align=left;verticalAlign=middle;whiteSpace=wrap;rounded=0;" vertex="1" parent="1">
          <mxGeometry x="190" y="400" width="130" height="30" as="geometry" />
        </mxCell>
        <mxCell id="9jhqy1c9CeMgTM1U6a1--46" value="(req: Request, res: Respond)" style="html=1;verticalAlign=bottom;endArrow=block;curved=0;rounded=0;entryX=0;entryY=0;entryDx=0;entryDy=5;" edge="1" target="9jhqy1c9CeMgTM1U6a1--45" parent="1" source="9jhqy1c9CeMgTM1U6a1--34">
          <mxGeometry relative="1" as="geometry">
            <mxPoint x="465" y="375" as="sourcePoint" />
          </mxGeometry>
        </mxCell>
        <mxCell id="9jhqy1c9CeMgTM1U6a1--47" value="next()" style="html=1;verticalAlign=bottom;endArrow=open;dashed=1;endSize=8;curved=0;rounded=0;exitX=0;exitY=1;exitDx=0;exitDy=-5;" edge="1" source="9jhqy1c9CeMgTM1U6a1--45" parent="1" target="9jhqy1c9CeMgTM1U6a1--34">
          <mxGeometry relative="1" as="geometry">
            <mxPoint x="465" y="445" as="targetPoint" />
          </mxGeometry>
        </mxCell>
        <mxCell id="9jhqy1c9CeMgTM1U6a1--53" value="" style="group" vertex="1" connectable="0" parent="1">
          <mxGeometry x="310" y="380" width="290" height="230" as="geometry" />
        </mxCell>
        <mxCell id="9jhqy1c9CeMgTM1U6a1--51" value="Opt" style="shape=umlFrame;whiteSpace=wrap;html=1;pointerEvents=0;" vertex="1" parent="9jhqy1c9CeMgTM1U6a1--53">
          <mxGeometry width="290" height="230" as="geometry" />
        </mxCell>
        <mxCell id="9jhqy1c9CeMgTM1U6a1--52" value="No Error" style="text;html=1;align=center;verticalAlign=middle;whiteSpace=wrap;rounded=0;" vertex="1" parent="9jhqy1c9CeMgTM1U6a1--53">
          <mxGeometry x="80" width="53" height="24.44" as="geometry" />
        </mxCell>
        <mxCell id="9jhqy1c9CeMgTM1U6a1--56" value="&lt;div&gt;ClientModel.findOne({&lt;span style=&quot;background-color: light-dark(#ffffff, var(--ge-dark-color, #121212)); color: light-dark(rgb(0, 0, 0), rgb(255, 255, 255));&quot;&gt;email: email&lt;/span&gt;&lt;span style=&quot;color: light-dark(rgb(0, 0, 0), rgb(255, 255, 255)); background-color: light-dark(#ffffff, var(--ge-dark-color, #121212));&quot;&gt;});&lt;/span&gt;&lt;/div&gt;" style="html=1;verticalAlign=bottom;endArrow=block;curved=0;rounded=0;entryX=0;entryY=0;entryDx=0;entryDy=5;" edge="1" target="9jhqy1c9CeMgTM1U6a1--55" parent="1" source="9jhqy1c9CeMgTM1U6a1--19">
          <mxGeometry relative="1" as="geometry">
            <mxPoint x="680" y="655" as="sourcePoint" />
          </mxGeometry>
        </mxCell>
        <mxCell id="9jhqy1c9CeMgTM1U6a1--57" value="ClientDoc" style="html=1;verticalAlign=bottom;endArrow=open;dashed=1;endSize=8;curved=0;rounded=0;exitX=0;exitY=1;exitDx=0;exitDy=-5;" edge="1" source="9jhqy1c9CeMgTM1U6a1--55" parent="1" target="9jhqy1c9CeMgTM1U6a1--19">
          <mxGeometry relative="1" as="geometry">
            <mxPoint x="680" y="725" as="targetPoint" />
          </mxGeometry>
        </mxCell>
        <mxCell id="9jhqy1c9CeMgTM1U6a1--21" value="jwt" style="shape=umlLifeline;perimeter=lifelinePerimeter;whiteSpace=wrap;html=1;container=1;dropTarget=0;collapsible=0;recursiveResize=0;outlineConnect=0;portConstraint=eastwest;newEdgeStyle={&quot;curved&quot;:0,&quot;rounded&quot;:0};" vertex="1" parent="1">
          <mxGeometry x="1040" y="280" width="100" height="1060" as="geometry" />
        </mxCell>
        <mxCell id="9jhqy1c9CeMgTM1U6a1--78" value="" style="html=1;points=[[0,0,0,0,5],[0,1,0,0,-5],[1,0,0,0,5],[1,1,0,0,-5]];perimeter=orthogonalPerimeter;outlineConnect=0;targetShapes=umlLifeline;portConstraint=eastwest;newEdgeStyle={&quot;curved&quot;:0,&quot;rounded&quot;:0};" vertex="1" parent="9jhqy1c9CeMgTM1U6a1--21">
          <mxGeometry x="45" y="820" width="10" height="80" as="geometry" />
        </mxCell>
        <mxCell id="9jhqy1c9CeMgTM1U6a1--58" value="NotFoundError:Error" style="shape=umlLifeline;perimeter=lifelinePerimeter;whiteSpace=wrap;html=1;container=1;dropTarget=0;collapsible=0;recursiveResize=0;outlineConnect=0;portConstraint=eastwest;newEdgeStyle={&quot;curved&quot;:0,&quot;rounded&quot;:0};" vertex="1" parent="1">
          <mxGeometry x="1200" y="280" width="140" height="790" as="geometry" />
        </mxCell>
        <mxCell id="9jhqy1c9CeMgTM1U6a1--59" value="NotFoundError:Error" style="shape=umlLifeline;perimeter=lifelinePerimeter;whiteSpace=wrap;html=1;container=1;dropTarget=0;collapsible=0;recursiveResize=0;outlineConnect=0;portConstraint=eastwest;newEdgeStyle={&quot;curved&quot;:0,&quot;rounded&quot;:0};" vertex="1" parent="1">
          <mxGeometry x="1430" y="280" width="140" height="790" as="geometry" />
        </mxCell>
        <mxCell id="9jhqy1c9CeMgTM1U6a1--63" value="" style="group" vertex="1" connectable="0" parent="1">
          <mxGeometry x="310" y="620" width="470" height="170" as="geometry" />
        </mxCell>
        <mxCell id="9jhqy1c9CeMgTM1U6a1--64" value="Opt" style="shape=umlFrame;whiteSpace=wrap;html=1;pointerEvents=0;" vertex="1" parent="9jhqy1c9CeMgTM1U6a1--63">
          <mxGeometry width="470" height="170" as="geometry" />
        </mxCell>
        <mxCell id="9jhqy1c9CeMgTM1U6a1--65" value="Find a client" style="text;html=1;align=center;verticalAlign=middle;whiteSpace=wrap;rounded=0;" vertex="1" parent="9jhqy1c9CeMgTM1U6a1--63">
          <mxGeometry x="129.65517241379308" width="85.89655172413792" height="18.064347826086955" as="geometry" />
        </mxCell>
        <mxCell id="9jhqy1c9CeMgTM1U6a1--69" value="&amp;lt;&amp;lt;services&amp;gt;&amp;gt;Password" style="shape=umlLifeline;perimeter=lifelinePerimeter;whiteSpace=wrap;html=1;container=1;dropTarget=0;collapsible=0;recursiveResize=0;outlineConnect=0;portConstraint=eastwest;newEdgeStyle={&quot;curved&quot;:0,&quot;rounded&quot;:0};" vertex="1" parent="1">
          <mxGeometry x="880" y="280" width="130" height="1030" as="geometry" />
        </mxCell>
        <mxCell id="9jhqy1c9CeMgTM1U6a1--70" value="" style="html=1;points=[[0,0,0,0,5],[0,1,0,0,-5],[1,0,0,0,5],[1,1,0,0,-5]];perimeter=orthogonalPerimeter;outlineConnect=0;targetShapes=umlLifeline;portConstraint=eastwest;newEdgeStyle={&quot;curved&quot;:0,&quot;rounded&quot;:0};" vertex="1" parent="9jhqy1c9CeMgTM1U6a1--69">
          <mxGeometry x="45" y="560" width="10" height="80" as="geometry" />
        </mxCell>
        <mxCell id="9jhqy1c9CeMgTM1U6a1--71" value="compare(password, clientPassword)" style="html=1;verticalAlign=bottom;endArrow=block;curved=0;rounded=0;entryX=0;entryY=0;entryDx=0;entryDy=5;" edge="1" target="9jhqy1c9CeMgTM1U6a1--70" parent="1" source="9jhqy1c9CeMgTM1U6a1--19">
          <mxGeometry relative="1" as="geometry">
            <mxPoint x="855" y="845" as="sourcePoint" />
          </mxGeometry>
        </mxCell>
        <mxCell id="9jhqy1c9CeMgTM1U6a1--72" value="true" style="html=1;verticalAlign=bottom;endArrow=open;dashed=1;endSize=8;curved=0;rounded=0;exitX=0;exitY=1;exitDx=0;exitDy=-5;" edge="1" source="9jhqy1c9CeMgTM1U6a1--70" parent="1" target="9jhqy1c9CeMgTM1U6a1--19">
          <mxGeometry relative="1" as="geometry">
            <mxPoint x="855" y="915" as="targetPoint" />
          </mxGeometry>
        </mxCell>
        <mxCell id="9jhqy1c9CeMgTM1U6a1--73" value="" style="group" vertex="1" connectable="0" parent="1">
          <mxGeometry x="310" y="810" width="640" height="130" as="geometry" />
        </mxCell>
        <mxCell id="9jhqy1c9CeMgTM1U6a1--74" value="Opt" style="shape=umlFrame;whiteSpace=wrap;html=1;pointerEvents=0;" vertex="1" parent="9jhqy1c9CeMgTM1U6a1--73">
          <mxGeometry width="640" height="130" as="geometry" />
        </mxCell>
        <mxCell id="9jhqy1c9CeMgTM1U6a1--75" value="Password Matched" style="text;html=1;align=center;verticalAlign=middle;whiteSpace=wrap;rounded=0;" vertex="1" parent="9jhqy1c9CeMgTM1U6a1--73">
          <mxGeometry x="176.551724137931" width="116.96551724137929" height="13.81391304347826" as="geometry" />
        </mxCell>
        <mxCell id="9jhqy1c9CeMgTM1U6a1--79" value="&lt;div style=&quot;color: rgb(204, 204, 204); background-color: rgb(31, 31, 31); font-family: Consolas, &amp;quot;Courier New&amp;quot;, monospace; line-height: 19px; white-space-collapse: preserve;&quot;&gt;&lt;div style=&quot;&quot;&gt;&lt;font style=&quot;font-size: 10px;&quot;&gt;&lt;span style=&quot;color: rgb(156, 220, 254);&quot;&gt;jwt&lt;/span&gt;.&lt;span style=&quot;color: rgb(220, 220, 170);&quot;&gt;sign&lt;/span&gt;({&lt;/font&gt;&lt;/div&gt;&lt;div style=&quot;&quot;&gt;&lt;font style=&quot;font-size: 10px;&quot;&gt;&lt;span style=&quot;color: rgb(156, 220, 254);&quot;&gt;&lt;span style=&quot;white-space: pre;&quot;&gt;&#x9;&lt;span style=&quot;white-space: pre;&quot;&gt;&#x9;&lt;/span&gt;&lt;/span&gt;id&lt;/span&gt;&lt;span style=&quot;color: rgb(156, 220, 254);&quot;&gt;:&lt;/span&gt; &lt;span style=&quot;color: rgb(79, 193, 255);&quot;&gt;client&lt;/span&gt;.&lt;span style=&quot;color: rgb(156, 220, 254);&quot;&gt;id&lt;/span&gt;,&lt;/font&gt;&lt;/div&gt;&lt;div style=&quot;&quot;&gt;&lt;font style=&quot;font-size: 10px;&quot;&gt;&lt;span style=&quot;color: rgb(156, 220, 254);&quot;&gt;&lt;span style=&quot;white-space: pre;&quot;&gt;&#x9;&lt;span style=&quot;white-space: pre;&quot;&gt;&#x9;&lt;/span&gt;&lt;/span&gt;email&lt;/span&gt;&lt;span style=&quot;color: rgb(156, 220, 254);&quot;&gt;:&lt;/span&gt; &lt;span style=&quot;color: rgb(79, 193, 255);&quot;&gt;client&lt;/span&gt;.&lt;span style=&quot;color: rgb(156, 220, 254);&quot;&gt;email&lt;/span&gt;,&lt;/font&gt;&lt;/div&gt;&lt;div style=&quot;&quot;&gt;&lt;font style=&quot;font-size: 10px;&quot;&gt;&lt;span style=&quot;white-space: pre;&quot;&gt;&#x9;&lt;/span&gt;},&lt;span style=&quot;background-color: light-dark(rgb(31, 31, 31), rgb(210, 210, 210)); color: rgb(206, 145, 120);&quot;&gt;&quot;secretkey&quot;&lt;/span&gt;&lt;/font&gt;&lt;/div&gt;&lt;div style=&quot;&quot;&gt;&lt;span style=&quot;background-color: light-dark(rgb(31, 31, 31), rgb(210, 210, 210)); color: light-dark(rgb(204, 204, 204), rgb(62, 62, 62));&quot;&gt;&lt;font style=&quot;font-size: 10px;&quot;&gt;);&lt;/font&gt;&lt;/span&gt;&lt;/div&gt;&lt;/div&gt;" style="html=1;verticalAlign=bottom;endArrow=block;curved=0;rounded=0;entryX=0;entryY=0;entryDx=0;entryDy=5;align=left;" edge="1" target="9jhqy1c9CeMgTM1U6a1--78" parent="1" source="9jhqy1c9CeMgTM1U6a1--19">
          <mxGeometry x="0.0014" relative="1" as="geometry">
            <mxPoint x="1015" y="1055" as="sourcePoint" />
            <mxPoint as="offset" />
          </mxGeometry>
        </mxCell>
        <mxCell id="9jhqy1c9CeMgTM1U6a1--80" value="clientJwt" style="html=1;verticalAlign=bottom;endArrow=open;dashed=1;endSize=8;curved=0;rounded=0;exitX=0;exitY=1;exitDx=0;exitDy=-5;" edge="1" source="9jhqy1c9CeMgTM1U6a1--78" parent="1" target="9jhqy1c9CeMgTM1U6a1--19">
          <mxGeometry relative="1" as="geometry">
            <mxPoint x="330" y="1125" as="targetPoint" />
          </mxGeometry>
        </mxCell>
        <mxCell id="9jhqy1c9CeMgTM1U6a1--17" value="&amp;lt;&amp;lt;entity&amp;gt;&amp;gt;ClientModel" style="shape=umlLifeline;whiteSpace=wrap;html=1;container=1;dropTarget=0;collapsible=0;recursiveResize=0;outlineConnect=0;portConstraint=eastwest;newEdgeStyle={&quot;curved&quot;:0,&quot;rounded&quot;:0};points=[[0,0,0,0,5],[0,1,0,0,-5],[1,0,0,0,5],[1,1,0,0,-5]];perimeter=rectanglePerimeter;targetShapes=umlLifeline;participant=label;" vertex="1" parent="1">
          <mxGeometry x="690" y="280" width="130" height="1040" as="geometry" />
        </mxCell>
        <mxCell id="9jhqy1c9CeMgTM1U6a1--55" value="" style="html=1;points=[[0,0,0,0,5],[0,1,0,0,-5],[1,0,0,0,5],[1,1,0,0,-5]];perimeter=orthogonalPerimeter;outlineConnect=0;targetShapes=umlLifeline;portConstraint=eastwest;newEdgeStyle={&quot;curved&quot;:0,&quot;rounded&quot;:0};" vertex="1" parent="9jhqy1c9CeMgTM1U6a1--17">
          <mxGeometry x="45" y="487.0886075949367" width="10" height="105.31645569620254" as="geometry" />
        </mxCell>
        <mxCell id="9jhqy1c9CeMgTM1U6a1--18" value="Validation Middleware" style="shape=umlLifeline;perimeter=lifelinePerimeter;whiteSpace=wrap;html=1;container=1;dropTarget=0;collapsible=0;recursiveResize=0;outlineConnect=0;portConstraint=eastwest;newEdgeStyle={&quot;curved&quot;:0,&quot;rounded&quot;:0};" vertex="1" parent="1">
          <mxGeometry x="490" y="280" width="100" height="1026.8354430379748" as="geometry" />
        </mxCell>
        <mxCell id="9jhqy1c9CeMgTM1U6a1--45" value="" style="html=1;points=[[0,0,0,0,5],[0,1,0,0,-5],[1,0,0,0,5],[1,1,0,0,-5]];perimeter=orthogonalPerimeter;outlineConnect=0;targetShapes=umlLifeline;portConstraint=eastwest;newEdgeStyle={&quot;curved&quot;:0,&quot;rounded&quot;:0};" vertex="1" parent="9jhqy1c9CeMgTM1U6a1--18">
          <mxGeometry x="45" y="184.30379746835442" width="10" height="223.7974683544304" as="geometry" />
        </mxCell>
      </root>
    </mxGraphModel>
  </diagram>
</mxfile>
